<?xml version="1.0" encoding="utf-8"?>
<!-- Generator: Adobe Illustrator 16.0.0, SVG Export Plug-In . SVG Version: 6.00 Build 0)  -->
<!DOCTYPE svg PUBLIC "-//W3C//DTD SVG 1.1//EN" "http://www.w3.org/Graphics/SVG/1.1/DTD/svg11.dtd">
<svg version="1.1" xmlns="http://www.w3.org/2000/svg" xmlns:xlink="http://www.w3.org/1999/xlink" x="0px" y="0px"
	 width="383.25px" height="81px" viewBox="0 0 383.25 81" enable-background="new 0 0 383.25 81" xml:space="preserve">
<g id="light">
</g>
<g id="dark">
	<rect x="0.005" display="none" fill="#4D4D4F" width="383.25" height="81"/>
	<g>
		<path fill="#72CDF6" d="M24.18,3.34L12.471,34.75h-2.234L21.924,3.34H24.18z"/>
		<path fill="#72CDF6" d="M36.14,3.34L24.431,34.75h-2.234L33.884,3.34H36.14z"/>
		<path fill="#72CDF6" d="M34.887,33.568V30.26c1.676,1.175,3.48,1.762,5.414,1.762c1.991,0,3.427-0.49,4.308-1.472
			s1.321-2.589,1.321-4.823V5.402h3.18v20.582c0,1.791-0.251,3.319-0.752,4.587c-0.501,1.268-1.186,2.21-2.052,2.825
			c-0.867,0.616-1.755,1.053-2.664,1.311c-0.91,0.258-1.887,0.387-2.933,0.387C38.604,35.094,36.663,34.586,34.887,33.568z"/>
		<path fill="#72CDF6" d="M54.775,12.578V8.84l5.415-3.438h3.609V34.75h-3.18V8.711L54.775,12.578z"/>
		<path fill="#72CDF6" d="M67.831,14.92c0-1.205,0.183-2.371,0.549-3.498c0.365-1.127,0.921-2.186,1.666-3.176
			c0.746-0.99,1.789-1.777,3.13-2.358s2.893-0.872,4.656-0.872c6.652,0,9.979,4.605,9.979,13.814c0,2.793-0.347,5.229-1.041,7.305
			c-0.693,2.077-1.523,3.674-2.489,4.791s-2.113,2.006-3.443,2.664c-1.331,0.659-2.479,1.074-3.444,1.246
			c-0.966,0.172-1.949,0.258-2.951,0.258c-1.489,0-2.915-0.172-4.275-0.516v-2.986c1.16,0.344,2.414,0.516,3.761,0.516
			c0.058,0,0.114,0,0.172,0c0.672,0,1.329-0.043,1.973-0.129s1.456-0.318,2.436-0.697s1.841-0.9,2.585-1.565
			c0.743-0.665,1.44-1.642,2.091-2.929s1.062-2.811,1.233-4.569c-1.73,1.308-3.925,1.962-6.585,1.962
			c-3.083,0-5.521-0.828-7.313-2.486C68.727,20.035,67.831,17.777,67.831,14.92z M71.011,14.941c0,1.991,0.586,3.531,1.759,4.619
			c1.173,1.089,2.86,1.633,5.063,1.633c2.96,0,5.227-0.838,6.8-2.514c-0.029-2.02-0.226-3.749-0.59-5.188
			c-0.365-1.439-0.776-2.503-1.233-3.19c-0.458-0.688-1.052-1.221-1.78-1.601c-0.729-0.38-1.291-0.591-1.684-0.634
			c-0.394-0.043-0.897-0.064-1.513-0.064c-1.459,0-2.688,0.272-3.689,0.816c-1.001,0.545-1.705,1.246-2.113,2.105
			c-0.407,0.859-0.679,1.598-0.814,2.213C71.078,13.753,71.011,14.354,71.011,14.941z"/>
		<path fill="#72CDF6" d="M102.543,3.34L90.834,34.75H88.6l11.688-31.41H102.543z"/>
		<path fill="#72CDF6" d="M114.503,3.34l-11.709,31.41h-2.234l11.688-31.41H114.503z"/>
	</g>
	<g>
		<defs>
			<rect id="SVGID_3_" y="24.25" width="71.458" height="53.25"/>
		</defs>
		<clipPath id="SVGID_2_">
			<use xlink:href="#SVGID_3_"  overflow="visible"/>
		</clipPath>
		<g clip-path="url(#SVGID_2_)">
			<path fill="#FFFFFF" d="M30.047,88.75h-3.621V40.727H9.727v-3.375h37.02v3.375H30.047V88.75z"/>
		</g>
	</g>
	<g>
		<path fill="#FFFFFF" d="M65.837,77.453c-5.555,0-9.885-1.711-12.99-5.133c-3.106-3.422-4.658-8.215-4.658-14.379
			c0-6.094,1.5-10.975,4.5-14.643c3-3.668,7.043-5.502,12.129-5.502c4.5,0,8.051,1.57,10.652,4.711s3.902,7.406,3.902,12.797v2.813
			H51.845c0.047,5.25,1.271,9.258,3.674,12.023c2.402,2.766,5.841,4.148,10.318,4.148c2.18,0,4.096-0.152,5.748-0.457
			s3.744-0.961,6.275-1.969v3.164c-2.157,0.938-4.148,1.576-5.977,1.916S68.04,77.453,65.837,77.453z M64.817,40.891
			c-3.68,0-6.633,1.213-8.859,3.639c-2.227,2.426-3.528,5.924-3.902,10.494h23.625c0-4.43-0.961-7.893-2.883-10.389
			C70.876,42.139,68.215,40.891,64.817,40.891z"/>
		<path fill="#FFFFFF" d="M100.281,77.453c-5.461,0-9.738-1.723-12.832-5.168s-4.641-8.25-4.641-14.414
			c0-6.328,1.605-11.256,4.816-14.783c3.211-3.527,7.605-5.291,13.184-5.291c3.305,0,6.469,0.574,9.492,1.723l-0.949,3.094
			c-3.305-1.102-6.176-1.652-8.613-1.652c-4.688,0-8.239,1.447-10.652,4.342c-2.414,2.895-3.621,7.061-3.621,12.498
			c0,5.156,1.207,9.193,3.621,12.111c2.414,2.918,5.789,4.377,10.125,4.377c3.468,0,6.691-0.621,9.668-1.863v3.234
			C107.44,76.855,104.241,77.453,100.281,77.453z"/>
		<path fill="#FFFFFF" d="M140.982,76.75V51.965c0-3.844-0.809-6.639-2.426-8.385s-4.125-2.619-7.523-2.619
			c-4.57,0-7.916,1.154-10.037,3.463c-2.122,2.309-3.182,6.053-3.182,11.232V76.75h-3.48V22.047h3.48v17.402l-0.176,4.887h0.246
			c1.429-2.297,3.234-3.961,5.414-4.992s4.887-1.547,8.121-1.547c8.672,0,13.008,4.652,13.008,13.957V76.75H140.982z"/>
		<path fill="#FFFFFF" d="M189.409,66.801c0,3.422-1.301,6.053-3.902,7.893s-6.293,2.76-11.074,2.76
			c-5.109,0-9.164-0.785-12.164-2.355v-3.762c3.844,1.922,7.898,2.883,12.164,2.883c3.773,0,6.639-0.627,8.596-1.881
			s2.936-2.924,2.936-5.01c0-1.922-0.779-3.539-2.338-4.852s-4.119-2.602-7.682-3.867c-3.82-1.383-6.504-2.572-8.051-3.568
			s-2.713-2.121-3.498-3.375s-1.178-2.783-1.178-4.588c0-2.859,1.201-5.121,3.604-6.785s5.76-2.496,10.072-2.496
			c4.125,0,8.039,0.773,11.742,2.32l-1.301,3.164c-3.75-1.547-7.23-2.32-10.441-2.32c-3.117,0-5.59,0.516-7.418,1.547
			s-2.742,2.461-2.742,4.289c0,1.992,0.709,3.586,2.127,4.781s4.189,2.531,8.314,4.008c3.445,1.242,5.953,2.361,7.523,3.357
			s2.748,2.127,3.533,3.393S189.409,65.09,189.409,66.801z"/>
		<path fill="#FFFFFF" d="M209.79,77.453c-5.555,0-9.885-1.711-12.99-5.133s-4.658-8.215-4.658-14.379
			c0-6.094,1.5-10.975,4.5-14.643s7.043-5.502,12.129-5.502c4.5,0,8.051,1.57,10.652,4.711s3.902,7.406,3.902,12.797v2.813h-27.527
			c0.047,5.25,1.271,9.258,3.674,12.023s5.842,4.148,10.318,4.148c2.18,0,4.096-0.152,5.748-0.457s3.744-0.961,6.275-1.969v3.164
			c-2.156,0.938-4.148,1.576-5.977,1.916S211.993,77.453,209.79,77.453z M208.771,40.891c-3.68,0-6.633,1.213-8.859,3.639
			s-3.527,5.924-3.902,10.494h23.625c0-4.43-0.961-7.893-2.883-10.389S212.169,40.891,208.771,40.891z"/>
		<path fill="#FFFFFF" d="M244.023,37.797c1.617,0,3.352,0.164,5.203,0.492l-0.668,3.34c-1.594-0.398-3.246-0.598-4.957-0.598
			c-3.258,0-5.93,1.383-8.016,4.148s-3.129,6.258-3.129,10.477V76.75h-3.48V38.535h2.953l0.352,6.891h0.246
			c1.57-2.813,3.246-4.787,5.027-5.924S241.492,37.797,244.023,37.797z"/>
		<path fill="#FFFFFF" d="M260.467,76.75l-14.766-38.215h3.586l9.879,25.98c1.313,3.328,2.297,6.234,2.953,8.719h0.211
			c0.961-3.188,1.945-6.117,2.953-8.789l9.879-25.91h3.586L263.982,76.75H260.467z"/>
		<path fill="#FFFFFF" d="M279.759,27.918c0-2.25,0.738-3.375,2.215-3.375c0.727,0,1.295,0.293,1.705,0.879s0.615,1.418,0.615,2.496
			c0,1.055-0.205,1.887-0.615,2.496s-0.979,0.914-1.705,0.914C280.497,31.328,279.759,30.191,279.759,27.918z M283.731,76.75h-3.48
			V38.535h3.48V76.75z"/>
		<path fill="#FFFFFF" d="M306.89,77.453c-5.461,0-9.738-1.723-12.832-5.168s-4.641-8.25-4.641-14.414
			c0-6.328,1.605-11.256,4.816-14.783s7.605-5.291,13.184-5.291c3.305,0,6.469,0.574,9.492,1.723l-0.949,3.094
			c-3.305-1.102-6.176-1.652-8.613-1.652c-4.688,0-8.238,1.447-10.652,4.342s-3.621,7.061-3.621,12.498
			c0,5.156,1.207,9.193,3.621,12.111s5.789,4.377,10.125,4.377c3.469,0,6.691-0.621,9.668-1.863v3.234
			C314.05,76.855,310.851,77.453,306.89,77.453z"/>
		<path fill="#FFFFFF" d="M336.377,77.453c-5.555,0-9.885-1.711-12.99-5.133s-4.658-8.215-4.658-14.379
			c0-6.094,1.5-10.975,4.5-14.643s7.043-5.502,12.129-5.502c4.5,0,8.051,1.57,10.652,4.711s3.902,7.406,3.902,12.797v2.813h-27.527
			c0.047,5.25,1.271,9.258,3.674,12.023s5.842,4.148,10.318,4.148c2.18,0,4.096-0.152,5.748-0.457s3.744-0.961,6.275-1.969v3.164
			c-2.156,0.938-4.148,1.576-5.977,1.916S338.58,77.453,336.377,77.453z M335.357,40.891c-3.68,0-6.633,1.213-8.859,3.639
			s-3.527,5.924-3.902,10.494h23.625c0-4.43-0.961-7.893-2.883-10.389S338.756,40.891,335.357,40.891z"/>
		<path fill="#FFFFFF" d="M379.258,66.801c0,3.422-1.301,6.053-3.902,7.893s-6.293,2.76-11.074,2.76
			c-5.109,0-9.164-0.785-12.164-2.355v-3.762c3.844,1.922,7.898,2.883,12.164,2.883c3.773,0,6.639-0.627,8.596-1.881
			s2.936-2.924,2.936-5.01c0-1.922-0.779-3.539-2.338-4.852s-4.119-2.602-7.682-3.867c-3.82-1.383-6.504-2.572-8.051-3.568
			s-2.713-2.121-3.498-3.375s-1.178-2.783-1.178-4.588c0-2.859,1.201-5.121,3.604-6.785s5.76-2.496,10.072-2.496
			c4.125,0,8.039,0.773,11.742,2.32l-1.301,3.164c-3.75-1.547-7.23-2.32-10.441-2.32c-3.117,0-5.59,0.516-7.418,1.547
			s-2.742,2.461-2.742,4.289c0,1.992,0.709,3.586,2.127,4.781s4.189,2.531,8.314,4.008c3.445,1.242,5.953,2.361,7.523,3.357
			s2.748,2.127,3.533,3.393S379.258,65.09,379.258,66.801z"/>
	</g>
</g>
<g id="icon">
</g>
</svg>
